<?xml version="1.0" encoding="UTF-8" standalone="no"?>
<svg
   width="205.528"
   height="84.049"
   viewBox="0 0 205.528 84.049"
   version="1.1"
   id="svg226"
   sodipodi:docname="Logo.svg"
   inkscape:version="1.1.2 (b8e25be8, 2022-02-05)"
   xmlns:inkscape="http://www.inkscape.org/namespaces/inkscape"
   xmlns:sodipodi="http://sodipodi.sourceforge.net/DTD/sodipodi-0.dtd"
   xmlns="http://www.w3.org/2000/svg"
   xmlns:svg="http://www.w3.org/2000/svg">
  <defs
     id="defs230" />
  <sodipodi:namedview
     id="namedview228"
     pagecolor="#ffffff"
     bordercolor="#666666"
     borderopacity="1.0"
     inkscape:pageshadow="2"
     inkscape:pageopacity="0.0"
     inkscape:pagecheckerboard="0"
     showgrid="false"
     inkscape:zoom="5.7705033"
     inkscape:cx="185.25247"
     inkscape:cy="48.002745"
     inkscape:window-width="1399"
     inkscape:window-height="942"
     inkscape:window-x="0"
     inkscape:window-y="25"
     inkscape:window-maximized="0"
     inkscape:current-layer="Logo" />
  <g
     id="Logo"
     transform="translate(-132.156 -70.027)">
    <path
       id="Path_361"
       data-name="Path 361"
       d="M60.241,34.408a9.012,9.012,0,0,0-6.626,2.328q-2.351,2.328-2.4,7.282,0,4.875,2.407,7.287a9.022,9.022,0,0,0,6.626,2.328,9.038,9.038,0,0,0,6.631-2.328,9.086,9.086,0,0,0,2.407-6.714V16.882H75.2V44.592q0,6.775-4.1,10.872T60.25,59.538q-6.742,0-10.812-4.046-4.135-4.158-4.13-11.473a16.87,16.87,0,0,1,2.524-9.638,12.926,12.926,0,0,1,6.179-4.964,15.7,15.7,0,0,1,7.827-1A16.791,16.791,0,0,1,66.4,29.65v6.682A9.228,9.228,0,0,0,60.241,34.408Z"
       transform="translate(150.318 76.795)"
       fill="#ABE236" />
    <path
       id="Path_362"
       data-name="Path 362"
       d="M80.262,30.417A10.469,10.469,0,0,1,87.973,33.3q2.947,2.971,2.947,8.186t-2.947,8.167a10.422,10.422,0,0,1-7.711,2.906,10.438,10.438,0,0,1-7.715-2.906Q69.6,46.7,69.6,41.485T72.547,33.3A10.515,10.515,0,0,1,80.262,30.417Zm-4.731,5.872a7.064,7.064,0,0,0-1.718,5.2,7,7,0,0,0,1.718,5.178,7.507,7.507,0,0,0,9.457,0,7.036,7.036,0,0,0,1.718-5.178,7.1,7.1,0,0,0-1.718-5.2,6.4,6.4,0,0,0-4.726-1.658A6.42,6.42,0,0,0,75.532,36.289Z"
       transform="translate(160.055 82.219)"
       fill="#ABE236" />
    <path
       id="Path_363"
       data-name="Path 363"
       d="M102.168,46.681V51.37a12.674,12.674,0,0,1-4.521.778,10.429,10.429,0,0,1-7.715-2.906,10.622,10.622,0,0,1-2.947-7.757q0-5.215,2.947-8.186a11.768,11.768,0,0,1,15.431,0q2.938,2.971,2.943,8.186v8.554a10.494,10.494,0,0,1-2.924,7.734A10.319,10.319,0,0,1,97.688,60.7H91.1V56.483h6.589a6.319,6.319,0,0,0,4.7-1.676,6.232,6.232,0,0,0,1.7-4.479.237.237,0,0,0-.084.061l.065-.061V42.551a.684.684,0,0,0,0-.168v-.9a7.064,7.064,0,0,0-1.718-5.2,6.2,6.2,0,0,0-4.726-1.658A6.433,6.433,0,0,0,92.9,36.289q-1.676,1.658-1.718,5.2A6.435,6.435,0,0,0,92.9,46.253a6.279,6.279,0,0,0,4.726,1.676A7.44,7.44,0,0,0,102.168,46.681Z"
       transform="translate(167.021 82.219)"
       fill="#ABE236" />
    <path
       id="Path_364"
       data-name="Path 364"
       d="M109.859,37.331V43.78a6.415,6.415,0,0,0,1.718,4.768,6.3,6.3,0,0,0,4.7,1.676h.368v4.214h-.368a10.323,10.323,0,0,1-7.692-2.924,10.734,10.734,0,0,1-2.947-7.734V24.564h4.219v8.554h6.649v4.191Z"
       transform="translate(174.5 79.873)"
       fill="#ABE236" />
    <path
       id="Path_365"
       data-name="Path 365"
       d="M150.348,31.009V35.2H149.7q-4.656,0-6.426,1.863-1.4,1.434-1.4,4.582V52.307H137.66V41.644q0-4.824,2.58-7.506,3.027-3.157,9.452-3.152Z"
       transform="translate(187.336 82.447)"
       fill="#ABE236" />
    <path
       id="Path_366"
       data-name="Path 366"
       d="M133.182,41.889a5.68,5.68,0,0,0,.526,3.641,1.862,1.862,0,0,0,.247.442,4.151,4.151,0,0,1-1.3,6.44,5.929,5.929,0,0,1-4.656.13c-1.239-.4-2.445-.931-3.651-1.42a18.556,18.556,0,0,1-4.926-3.329,9.778,9.778,0,0,1-2.71-3.641,4.018,4.018,0,0,1,1.215-4.6,4.325,4.325,0,0,1,3.585-1.029,5.071,5.071,0,0,0,3.823-1.145,5.313,5.313,0,0,1,3.483-1.052c1.541.107,3.767,1.863,3.976,3.334C132.93,40.5,133.089,41.34,133.182,41.889Z"
       transform="translate(178.828 84.586)"
       fill="#ABE236"
       style="fill:#000000" />
    <path
       id="Path_367"
       data-name="Path 367"
       d="M123.138,35a7.11,7.11,0,0,1,3.259-5.909,6.547,6.547,0,0,1,3.725-1.267,1.816,1.816,0,0,1,1.863,2.542c-.526,1.653-1.211,3.259-1.863,4.861a5.709,5.709,0,0,1-3.18,3.041,3.1,3.1,0,0,1-3.092-1.4A16.044,16.044,0,0,1,123.138,35Z"
       transform="translate(181.514 81.182)"
       fill="#ABE236"
       style="fill:#000000" />
    <path
       id="Path_368"
       data-name="Path 368"
       d="M131.353,41.4a3.11,3.11,0,0,1-3.073-3.823,6.575,6.575,0,0,1,1.592-3.259c.931-1.145,1.863-2.3,2.84-3.427s2.012-.866,2.794.3a6.767,6.767,0,0,1,.931,4.06,7.208,7.208,0,0,1-.931,3.259A5.513,5.513,0,0,1,131.353,41.4Z"
       transform="translate(183.557 82.117)"
       fill="#ABE236"
       style="fill:#000000" />
    <path
       id="Path_369"
       data-name="Path 369"
       d="M124.556,30.522c-.158.726-.4,1.732-.587,2.752a3.1,3.1,0,0,0-.047,1.206,4.818,4.818,0,0,1-.107,3.283,4.018,4.018,0,0,1-2.44,2.184,2.254,2.254,0,0,1-2.235-.359,4.344,4.344,0,0,1-1.644-2.328,5.634,5.634,0,0,1,.466-4.191,9.035,9.035,0,0,1,4.009-4.419C123.322,27.924,124.6,28.864,124.556,30.522Z"
       transform="translate(179.17 81.412)"
       fill="#ABE236"
       style="fill:#000000" />
    <path
       id="Path_370"
       data-name="Path 370"
       d="M139.481,39.107c-.442,3.022-1.574,5.653-4.433,7.129-1.667.861-3.855.712-4.777-1.01a3.511,3.511,0,0,1,.438-3.888,4.656,4.656,0,0,1,1.863-1.313,9.962,9.962,0,0,0,3.1-2.133,9.68,9.68,0,0,1,1.178-.973,1.746,1.746,0,0,1,2.635,1.523C139.486,38.665,139.481,38.884,139.481,39.107Z"
       transform="translate(184.215 84.729)"
       fill="#ABE236"
       style="fill:#000000" />
    <g
       id="Group_20014"
       data-name="Group 20014">
      <path
         id="Path_371"
         data-name="Path 371"
         d="M0,26.666c.051-.359.088-.722.158-1.076.261-1.341.466-2.691.81-4.018a24.752,24.752,0,0,1,.82-2.4c.042-.116.1-.228.158-.372.116.1.2.177.279.256l4.782,4.782a.535.535,0,0,1,.172.563,23.453,23.453,0,0,0-.331,2.5c-.065.74-.061,1.49-.088,2.235a.545.545,0,0,0,0,.2c.275.694-.126,1.1-.582,1.551-1.583,1.546-3.138,3.12-4.7,4.694a1.779,1.779,0,0,0-.228.363L1.1,35.848l-.112-.363a19.189,19.189,0,0,1-.833-4.093c-.033-.307-.1-.61-.154-.931Z"
         transform="translate(132.156 77.563)"
         fill="#ABE236" />
      <path
         id="Path_372"
         data-name="Path 372"
         d="M22.269,63.118a3.865,3.865,0,0,1-2.193-1.537c-.359-.54-.708-1.085-1.066-1.625q-2.142-3.213-4.288-6.426c-.275-.414-.563-.829-.847-1.243l.079-.065c1.956,1.914,3.911,3.832,5.89,5.778l3.222-3.231c.251.386.5.759.74,1.136.563.875,1.2,1.714,1.672,2.631a3.311,3.311,0,0,1-.182,3.488,2.514,2.514,0,0,1-1.4,1.015.806.806,0,0,0-.154.079Z"
         transform="translate(137.717 90.959)"
         fill="#ABE236" />
      <path
         id="Path_373"
         data-name="Path 373"
         d="M33.378,0H38.9V40.677a13.591,13.591,0,0,1-1.276,5.685,12.367,12.367,0,0,1-2.454,3.567,12.623,12.623,0,0,1-5.9,3.334A18.131,18.131,0,0,1,23.5,53.7a13.205,13.205,0,0,1-6.984-2.4,11.967,11.967,0,0,1-3.506-3.939,15.487,15.487,0,0,1-1.495-4.125,12.036,12.036,0,0,1-.247-2.091,30.4,30.4,0,0,1-.075-3.055,14.676,14.676,0,0,1,2.584-8.125,11.939,11.939,0,0,1,3.832-3.418,14.388,14.388,0,0,1,4.759-1.625,14.667,14.667,0,0,1,3.031-.163,14.29,14.29,0,0,1,5.122,1.155.466.466,0,0,1,.228.312v6.007c-.5-.3-.964-.624-1.467-.871a7.72,7.72,0,0,0-3.031-.81,15.748,15.748,0,0,0-1.811-.07,8.6,8.6,0,0,0-4.563,1.4,6.9,6.9,0,0,0-2.864,4.535,17.2,17.2,0,0,0-.307,3.315,10.309,10.309,0,0,0,.931,4.484,6.738,6.738,0,0,0,4.689,3.688,11.236,11.236,0,0,0,3.432.3,8.656,8.656,0,0,0,4.4-1.327,6.793,6.793,0,0,0,2.538-3.18,8.437,8.437,0,0,0,.615-3.18c0-1.471.07-2.943.07-4.419V.517Z"
         transform="translate(136.639 70.027)"
         fill="#ABE236" />
      <path
         id="Path_374"
         data-name="Path 374"
         d="M40.126,41.193a.7.7,0,0,1-.1-.07l-4.349-4.265a.414.414,0,0,1-.135-.466c.275-1.131.526-2.268.764-3.408a8.409,8.409,0,0,0,.172-1.364c.047-1.043.126-2.091.07-3.134a19.272,19.272,0,0,0-1.327-6.151c-.214-.54-.512-1.052-.745-1.588a.438.438,0,0,1,.037-.391c1.453-1.476,2.924-2.943,4.391-4.4a.783.783,0,0,1,.116-.047c.233.345.489.689.708,1.052a25.958,25.958,0,0,1,2.9,6.393,22.817,22.817,0,0,1,.75,3.6,26.922,26.922,0,0,1,.158,4.191,14.9,14.9,0,0,1-1.108,5.038c-.666,1.616-1.453,3.185-2.184,4.777C40.2,41.044,40.172,41.119,40.126,41.193Z"
         transform="translate(145.965 76.402)"
         fill="#ABE236" />
      <path
         id="Path_375"
         data-name="Path 375"
         d="M6.519,27.216a22.676,22.676,0,0,0,1.662,6.053,26.8,26.8,0,0,0,2.361,4.191Q13,41.185,15.449,44.938c.326.5.638,1.006.955,1.513a.321.321,0,0,1-.061.466c-1.49,1.476-2.971,2.966-4.489,4.484-.307-.466-.61-.88-.9-1.322-.619-.931-1.229-1.9-1.863-2.836-1.551-2.328-3.12-4.656-4.656-7.012a29.66,29.66,0,0,1-3.488-7.1.554.554,0,0,1,.079-.466c1.755-1.774,3.525-3.534,5.294-5.308A.877.877,0,0,1,6.519,27.216Z"
         transform="translate(132.529 80.938)"
         fill="#ABE236" />
      <path
         id="Path_376"
         data-name="Path 376"
         d="M6.682,27.807c-.074-.07-.163-.14-.242-.219q-2.393-2.375-4.754-4.749a.4.4,0,0,1-.107-.531A22.271,22.271,0,0,1,4.7,17.186a38.474,38.474,0,0,1,2.673-2.971,24.613,24.613,0,0,1,4.4-3.339,22.946,22.946,0,0,1,5.373-2.282.414.414,0,0,1,.331.033c1.565,1.546,3.12,3.1,4.694,4.656C14.411,15.374,9.052,19.961,6.682,27.807Z"
         transform="translate(132.766 73.465)"
         fill="#ABE236" />
      <path
         id="Path_377"
         data-name="Path 377"
         d="M21.8,61.894l-.121-.112q-2.6-2.556-5.2-5.122c-.386-.377-.782-.745-1.183-1.108a13.559,13.559,0,0,1-1.863-2.519c-1.206-1.788-2.384-3.595-3.571-5.392-.307-.466-.624-.931-.908-1.4a.466.466,0,0,1,0-.428c1.49-1.513,2.989-3.013,4.526-4.549L24.827,58.834Z"
         transform="translate(135.729 86.568)"
         fill="#ABE236" />
      <path
         id="Path_378"
         data-name="Path 378"
         d="M37.9,31l4.545,4.545L41.224,38c-.466.982-.959,1.965-1.453,2.943a1.862,1.862,0,0,1-.349.494q-4.88,4.894-9.778,9.778c-.261.261-.433.307-.67,0a3.227,3.227,0,0,0-.549-.549c-.307-.233-.256-.466-.093-.759,1-1.863,1.988-3.725,2.98-5.588q1.737-3.259,3.469-6.519c.587-1.113,1.206-2.212,1.727-3.353S37.452,32.146,37.9,31Z"
         transform="translate(143.459 82.451)"
         fill="#ABE236" />
      <path
         id="Path_379"
         data-name="Path 379"
         d="M13.05,8.91A36.319,36.319,0,0,1,28.49,7.695c-.121.14-.182.228-.261.3-1.667,1.672-3.329,3.343-5.005,5a.894.894,0,0,1-.5.2q-2.277.275-4.563.508a.489.489,0,0,1-.349-.126c-.931-.885-1.863-1.774-2.757-2.668Z"
         transform="translate(137.387 72.977)"
         fill="#ABE236" />
      <path
         id="Path_380"
         data-name="Path 380"
         d="M31.521,10.221a26.708,26.708,0,0,1,8.46,7.622l-4.624,4.6c-.3-.466-.605-.982-.931-1.471A19.715,19.715,0,0,0,31.758,17.9a.633.633,0,0,1-.219-.377C31.516,15.133,31.521,12.721,31.521,10.221Z"
         transform="translate(144.791 74.125)"
         fill="#ABE236" />
      <path
         id="Path_381"
         data-name="Path 381"
         d="M28.923,8.263v6.244a23.244,23.244,0,0,0-8.428-1.4c.107-.135.154-.219.219-.284q2.486-2.51,4.968-5a.466.466,0,0,1,.559-.121C27.112,7.919,28.02,8.105,28.923,8.263Z"
         transform="translate(140.371 73.098)"
         fill="#ABE236" />
      <path
         id="Path_382"
         data-name="Path 382"
         d="M29.639,45.72l3.725,3.725c-.577,1.15-.871,2.491-2.147,3.259a2.977,2.977,0,0,1-4.656-1.863,7.45,7.45,0,0,1,0-1.825.559.559,0,0,1,.144-.34C27.66,47.681,28.642,46.708,29.639,45.72Z"
         transform="translate(142.781 88.354)"
         fill="#ABE236" />
      <path
         id="Path_383"
         data-name="Path 383"
         d="M32.364,51.742c-.2-.219-.405-.466-.629-.675q-1.173-1.15-2.365-2.286c-.2-.186-.237-.312,0-.531q4.526-4.5,9.042-9.033a.377.377,0,0,1,.265-.121C36.573,43.287,34.483,47.477,32.364,51.742Z"
         transform="translate(143.863 85.699)"
         fill="#ABE236" />
      <path
         id="Path_384"
         data-name="Path 384"
         d="M28.479,45.046l.694.689-2.249,2.258Z"
         transform="translate(142.949 88.084)"
         fill="#ABE236" />
    </g>
  </g>
</svg>
